<?xml version="1.0" encoding="UTF-8"?>
<svg width="16px" height="16px" viewBox="0 0 16 16" version="1.1" xmlns="http://www.w3.org/2000/svg" xmlns:xlink="http://www.w3.org/1999/xlink">
    <!-- Generator: Sketch 48.1 (47250) - http://www.bohemiancoding.com/sketch -->
    <title>Icons / Calendar</title>
    <desc>Created with Sketch.</desc>
    <defs>
        <path d="M10,3 L6,3 L6,4 L4,4 L4,3 L3,3 C2.44771525,3 2,3.44771525 2,4 L2,6 L14,6 L14,4 C14,3.44771525 13.5522847,3 13,3 L12,3 L12,4 L10,4 L10,3 Z M12,1 L13,1 C14.6568542,1 16,2.34314575 16,4 L16,13 C16,14.6568542 14.6568542,16 13,16 L3,16 C1.34314575,16 -2.41183085e-16,14.6568542 -4.4408921e-16,13 L-1.97215226e-31,4 C-2.02906125e-16,2.34314575 1.34314575,1 3,1 L4,1 L4,4.4408921e-16 L6,4.4408921e-16 L6,1 L10,1 L10,4.4408921e-16 L12,4.4408921e-16 L12,1 Z M2,8 L2,13 C2,13.5522847 2.44771525,14 3,14 L13,14 C13.5522847,14 14,13.5522847 14,13 L14,8 L2,8 Z" id="path-1"></path>
    </defs>
    <g id="Symbols" stroke="none" stroke-width="1" fill="none" fill-rule="evenodd">
        <g id="Icons-/-Calendar">
            <g id="Color-/-Medium-Gray">
                <mask id="mask-2" fill="white">
                    <use xlink:href="#path-1"></use>
                </mask>
                <use id="Mask" fill="#8E9FB6" fill-rule="nonzero" xlink:href="#path-1"></use>
            </g>
        </g>
    </g>
</svg>