<?xml version="1.0" encoding="UTF-8"?>
<svg width="16px" height="16px" viewBox="0 0 16 16" version="1.1" xmlns="http://www.w3.org/2000/svg" xmlns:xlink="http://www.w3.org/1999/xlink">
    <!-- Generator: Sketch 48.1 (47250) - http://www.bohemiancoding.com/sketch -->
    <title>Icons / Trash</title>
    <desc>Created with Sketch.</desc>
    <defs>
        <path d="M1,4 L13,4 L1,4 Z M3,3 C3,1.3954305 4.04657288,-1.33226763e-15 5.5,-1.33226763e-15 L8.5,-4.4408921e-16 C9.95342712,-4.4408921e-16 11,1.3954305 11,3 L13,3 C13.5522847,3 14,3.44771525 14,4 C14,4.55228475 13.5522847,5 13,5 L1,5 C0.44771525,5 0,4.55228475 0,4 C-1.11022302e-16,3.44771525 0.44771525,3 1,3 L3,3 Z M5,3 L9,3 C9,2.3954305 8.70342712,2 8.5,2 L5.5,2 C5.29657288,2 5,2.3954305 5,3 Z M11,7 C11,6.44771525 11.4477153,6 12,6 C12.5522847,6 13,6.44771525 13,7 L13,12 C13,14.1729208 11.477434,16 9.5,16 L4.5,16 C2.52256598,16 1,14.1729208 1,12 L1,7 C1,6.44771525 1.44771525,6 2,6 C2.55228475,6 3,6.44771525 3,7 L3,12 C3,13.1407877 3.71601028,14 4.5,14 L9.5,14 C10.2839897,14 11,13.1407877 11,12 L11,7 Z M5,6 C5.55228475,6 6,6.44771525 6,7 L6,11 C6,11.5522847 5.55228475,12 5,12 C4.44771525,12 4,11.5522847 4,11 L4,7 C4,6.44771525 4.44771525,6 5,6 Z M9,6 C9.55228475,6 10,6.44771525 10,7 L10,11 C10,11.5522847 9.55228475,12 9,12 C8.44771525,12 8,11.5522847 8,11 L8,7 C8,6.44771525 8.44771525,6 9,6 Z" id="path-1"></path>
    </defs>
    <g id="Symbols" stroke="none" stroke-width="1" fill="none" fill-rule="evenodd">
        <g id="Icons-/-Trash">
            <g id="Color-/-Medium-Gray" transform="translate(1.000000, 0.000000)">
                <mask id="mask-2" fill="white">
                    <use xlink:href="#path-1"></use>
                </mask>
                <use id="Mask" fill="#000" fill-rule="nonzero" xlink:href="#path-1"></use>
            </g>
        </g>
    </g>
</svg>