<?xml version="1.0" encoding="UTF-8"?>
<svg width="16px" height="16px" viewBox="0 0 16 16" version="1.1" xmlns="http://www.w3.org/2000/svg" xmlns:xlink="http://www.w3.org/1999/xlink">
    <!-- Generator: Sketch 48.1 (47250) - http://www.bohemiancoding.com/sketch -->
    <title>Icons / Expand / Middle</title>
    <desc>Created with Sketch.</desc>
    <defs>
        <path d="M12.5857864,14 L8.80761184,10.2218254 C8.41708755,9.83130112 8.41708755,9.19813614 8.80761184,8.80761184 C9.19813614,8.41708755 9.83130112,8.41708755 10.2218254,8.80761184 L14,12.5857864 L14,11 C14,10.4477153 14.4477153,10 15,10 C15.5522847,10 16,10.4477153 16,11 L16,15 C16,15.5522847 15.5522847,16 15,16 L11,16 C10.4477153,16 10,15.5522847 10,15 C10,14.4477153 10.4477153,14 11,14 L12.5857864,14 Z M12.5857864,2 L11,2 C10.4477153,2 10,1.55228475 10,1 C10,0.44771525 10.4477153,5.18241862e-16 11,1.11022302e-15 L15,2.71050543e-20 C15.2761424,5.07271091e-17 15.5261424,0.111928813 15.7071068,0.292893219 C15.8880712,0.473857625 16,0.723857625 16,1 L16,5 C16,5.55228475 15.5522847,6 15,6 C14.4477153,6 14,5.55228475 14,5 L14,3.41421356 L10.2218254,7.19238816 C9.83130112,7.58291245 9.19813614,7.58291245 8.80761184,7.19238816 C8.41708755,6.80186386 8.41708755,6.16869888 8.80761184,5.77817459 L12.5857864,2 Z M3.41421356,14 L5,14 C5.55228475,14 6,14.4477153 6,15 C6,15.5522847 5.55228475,16 5,16 L1,16 C0.44771525,16 -6.76353751e-17,15.5522847 0,15 C2.59615883e-15,14.6173004 0.214976935,14.2848113 0.530757758,14.1167058 C0.329890555,14.4947008 0.388673562,14.97446 0.707106781,15.2928932 C1.02554,15.6113264 1.50529918,15.6701094 1.88329418,15.4692422 C1.7151887,15.7850231 1.38269963,16 1,16 C0.44771525,16 0,15.5522847 0,15 L-4.4408921e-16,11 C0,10.4477153 0.44771525,10 1,10 C1.55228475,10 2,10.4477153 2,11 L2,12.5857864 L5.77817459,8.80761184 C6.16869888,8.41708755 6.80186386,8.41708755 7.19238816,8.80761184 C7.58291245,9.19813614 7.58291245,9.83130112 7.19238816,10.2218254 L3.41421356,14 Z M3.41421356,2 L7.19238816,5.77817459 C7.58291245,6.16869888 7.58291245,6.80186386 7.19238816,7.19238816 C6.80186386,7.58291245 6.16869888,7.58291245 5.77817459,7.19238816 L2,3.41421356 L2,5 C2,5.55228475 1.55228475,6 1,6 C0.44771525,6 -4.4408921e-16,5.55228475 -8.8817842e-16,5 L8.8817842e-16,1 C2.40309276e-14,0.44771525 0.44771525,1.01454218e-16 1,0 L5,1.11022302e-15 C5.55228475,5.18241862e-16 6,0.44771525 6,1 C6,1.55228475 5.55228475,2 5,2 L3.41421356,2 Z" id="path-1"></path>
    </defs>
    <g id="Symbols" stroke="none" stroke-width="1" fill="none" fill-rule="evenodd">
        <g id="Icons-/-Expand-/-Middle">
            <g id="Color-/-Black">
                <mask id="mask-2" fill="white">
                    <use xlink:href="#path-1"></use>
                </mask>
                <use id="Mask" fill="#8E9FB6" xlink:href="#path-1"></use>
            </g>
        </g>
    </g>
</svg>