<?xml version="1.0" encoding="UTF-8"?>
<svg width="16px" height="16px" viewBox="0 0 16 16" version="1.1" xmlns="http://www.w3.org/2000/svg" xmlns:xlink="http://www.w3.org/1999/xlink">
    <!-- Generator: Sketch 48.1 (47250) - http://www.bohemiancoding.com/sketch -->
    <title>Icons / Phone / Medium</title>
    <desc>Created with Sketch.</desc>
    <defs>
        <path d="M2,0 L10,0 C11.1045695,-3.33066907e-16 12,0.8954305 12,2 L12,14 C12,15.1045695 11.1045695,16 10,16 L2,16 C0.8954305,16 1.11632554e-15,15.1045695 0,14 L0,2 C-3.57315355e-16,0.8954305 0.8954305,1.11022302e-15 2,0 Z M2,2 L2,14 L10,14 L10,2 L2,2 Z M6,11 C6.55228475,11 7,11.4477153 7,12 C7,12.5522847 6.55228475,13 6,13 C5.44771525,13 5,12.5522847 5,12 C5,11.4477153 5.44771525,11 6,11 Z" id="path-1"></path>
    </defs>
    <g id="Symbols" stroke="none" stroke-width="1" fill="none" fill-rule="evenodd">
        <g id="Icons-/-Phone-/-Medium">
            <g id="Color-/-Medium-Gray" transform="translate(2.000000, 0.000000)">
                <mask id="mask-2" fill="white">
                    <use xlink:href="#path-1"></use>
                </mask>
                <use id="Mask" fill="#8E9FB6" fill-rule="nonzero" xlink:href="#path-1"></use>
            </g>
        </g>
    </g>
</svg>