<?xml version="1.0" encoding="UTF-8"?>
<svg width="16px" height="16px" viewBox="0 0 16 16" version="1.1" xmlns="http://www.w3.org/2000/svg" xmlns:xlink="http://www.w3.org/1999/xlink">
    <!-- Generator: Sketch 48.1 (47250) - http://www.bohemiancoding.com/sketch -->
    <title>Icons / Timezone / Medium</title>
    <desc>Created with Sketch.</desc>
    <defs>
        <path d="M8.0000091,7.99994543 L11.0000546,7.99994543 C11.5523393,7.99994543 12.0000546,8.44766068 12.0000546,8.99994543 C12.0000546,9.55223018 11.5523393,9.99994543 11.0000546,9.99994543 L7.00005457,9.99994543 L7.00005457,7.99994543 L8.0000091,7.99994543 L8,10 L6,10 L6.00002729,4 C6.00002729,3.44772591 6.44772591,3.00001507 7,3 L7,2.99997271 L7,2.99994543 C7.55228475,2.99993036 8.00001222,3.44763339 8.00002728,3.99991814 C8.00002729,3.99992724 8.00002729,3.99993633 8.00002729,3.99994543 L8.0000091,7.99994543 Z M8,16 C3.581722,16 0,12.418278 0,8 C0,3.581722 3.581722,0 8,0 C12.418278,0 16,3.581722 16,8 C16,12.418278 12.418278,16 8,16 Z M8,14 C11.3137085,14 14,11.3137085 14,8 C14,4.6862915 11.3137085,2 8,2 C4.6862915,2 2,4.6862915 2,8 C2,11.3137085 4.6862915,14 8,14 Z" id="path-1"></path>
    </defs>
    <g id="Symbols" stroke="none" stroke-width="1" fill="none" fill-rule="evenodd">
        <g id="Icons-/-Timezone-/-Medium">
            <g id="Color-/-Black">
                <mask id="mask-2" fill="white">
                    <use xlink:href="#path-1"></use>
                </mask>
                <use id="Mask" fill="#FE201D" fill-rule="nonzero" xlink:href="#path-1"></use>
            </g>
        </g>
    </g>
</svg>