<?xml version="1.0" encoding="UTF-8"?>
<svg width="16px" height="16px" viewBox="0 0 16 16" version="1.1" xmlns="http://www.w3.org/2000/svg" xmlns:xlink="http://www.w3.org/1999/xlink">
    <!-- Generator: Sketch 48.1 (47250) - http://www.bohemiancoding.com/sketch -->
    <title>Icons / Disturbance / Medium</title>
    <desc>Created with Sketch.</desc>
    <defs>
        <path d="M9.68203463,0.912689209 L15.8339722,12.1653137 C16.2670618,12.9061014 15.9165864,14.9625549 14.0208486,15 L2.04704321,15 C0.414673267,15 -0.462371356,13.2889099 0.249523747,12.0409126 L6.29448009,0.952850342 C6.80431996,0.157073975 7.60758178,0 7.96925453,0 C8.32480173,0 9.109728,0.0757446289 9.68203463,0.912689209 Z M8.63305664,3.00292969 C8.21355184,2.38917033 7.77493083,2.41936035 7.4012146,3.00292969 L2.94122314,11.3241272 C2.43218994,12.1678467 2.1829834,12.9299316 3.62768555,12.9299316 L12.428833,12.9299316 C14.1300659,12.9299316 13.5356107,12.0272384 13.0630798,11.2186279 L8.63305664,3.00292969 Z M8.04925894,10 C8.60154067,10 9.04925506,10.4477144 9.04925506,10.9999981 C9.04925506,11.5522847 8.60153981,12 8.04925506,12 C7.49697332,12 7.04925894,11.5522856 7.04925894,11.0000019 C7.04925894,10.4477153 7.49697419,10 8.04925894,10 Z M8.04926001,4 C8.60154468,4 9.04925987,4.44771519 9.04925987,4.99999987 L9.04925626,8.00000194 C9.04925559,8.55228581 8.60154087,9 8.049257,9 C7.49697332,9 7.04925894,8.55228562 7.04925894,8.00000194 L7.04925894,5.00000107 C7.04925894,4.44771573 7.49697466,4 8.04926001,4 Z" id="path-1"></path>
    </defs>
    <g id="Symbols" stroke="none" stroke-width="1" fill="none" fill-rule="evenodd">
        <g id="Icons-/-Disturbance-/-Medium">
            <g id="Color-/-Medium-Gray">
                <mask id="mask-2" fill="white">
                    <use xlink:href="#path-1"></use>
                </mask>
                <use id="Mask" fill="#8E9FB6" xlink:href="#path-1"></use>
            </g>
        </g>
    </g>
</svg>