<?xml version="1.0" encoding="UTF-8"?>
<svg width="24px" height="24px" viewBox="0 0 24 24" version="1.1" xmlns="http://www.w3.org/2000/svg" xmlns:xlink="http://www.w3.org/1999/xlink">
    <!-- Generator: Sketch 48.1 (47250) - http://www.bohemiancoding.com/sketch -->
    <title>Icons / Return / Big</title>
    <desc>Created with Sketch.</desc>
    <defs>
        <path d="M2.00002047,3.99899785 C3.82447931,1.57067445 6.72881432,0 10,0 C15.5228475,0 20,4.4771525 20,10 C20,15.5228475 15.5228475,20 10,20 C6.00123421,20 2.5506581,17.6529209 0.950740634,14.2612317 L2.72455789,13.1969414 C3.93371392,16.0801156 6.78298926,18.1052632 10.1052632,18.1052632 C14.5235412,18.1052632 18.1052632,14.5235412 18.1052632,10.1052632 C18.1052632,5.68698516 14.5235412,2.10526316 10.1052632,2.10526316 C7.18779607,2.10526316 4.63508366,3.66696359 3.23749037,6 L5,6 C5.55228475,6 6,6.44771525 6,7 C6,7.55228475 5.55228475,8 5,8 L1,8 C0.44771525,8 2.52856148e-13,7.55228475 2.27040609e-13,7 L2.72859415e-05,3 C2.72859415e-05,2.44772591 0.447725906,2.00001507 1,2 L1,1.99997271 L1,1.99994543 C1.55228475,1.99993036 2.00001222,2.44763339 2.00002728,2.99991814 C2.00002729,2.99992724 2.00002729,2.99993633 2.00002729,2.99994543 L2.00002047,3.99899785 Z M10,4.99997271 L10.000006,4.99994457 C10.5522908,4.9999295 11.0000182,5.44763253 11.0000333,5.99991728 C11.0000333,5.99992667 11.0000333,5.99993605 11.0000333,5.99994543 L11,11 C10.9999995,11.5522844 10.5522844,11.9999991 10,11.9999991 C9.44771525,12 9,11.5522847 9,11 L9.00002729,6 C9.00002729,5.44772591 9.44772591,5.00001507 10,5 L10,4.99997271 Z M10,13 C10.5522847,13 11,13.4477153 11,14 C11,14.5522847 10.5522847,15 10,15 C9.44771525,15 9,14.5522847 9,14 C9,13.4477153 9.44771525,13 10,13 Z" id="path-1"></path>
    </defs>
    <g id="Symbols" stroke="none" stroke-width="1" fill="none" fill-rule="evenodd">
        <g id="Icons-/-Return-/-Big">
            <g id="Color-/-Black" transform="translate(2.000000, 2.000000)">
                <mask id="mask-2" fill="white">
                    <use xlink:href="#path-1"></use>
                </mask>
                <use id="Combined-Shape" fill="#FE201D" fill-rule="nonzero" xlink:href="#path-1"></use>
            </g>
        </g>
    </g>
</svg>