<?xml version="1.0" encoding="UTF-8"?>
<svg width="16px" height="16px" viewBox="0 0 16 16" version="1.1" xmlns="http://www.w3.org/2000/svg" xmlns:xlink="http://www.w3.org/1999/xlink">
    <!-- Generator: Sketch 48.1 (47250) - http://www.bohemiancoding.com/sketch -->
    <title>Icons / Edit / Medium</title>
    <desc>Created with Sketch.</desc>
    <defs>
        <path d="M10.613407,13.640413 L10.6153681,14.640413 L6.65711611,18.640413 L2.61536806,14.640413 L2.60049174,7.05441119 L2.59068663,7.05441119 L2.59068663,5.05441119 L2.5965697,5.05441119 L2.59068663,2.05441119 C2.59068663,0.949841695 3.48611713,0.0544111948 4.59068663,0.0544111948 L8.59068663,0.0544111948 C9.69525613,0.0544111948 10.5906866,0.949841695 10.5906866,2.05441119 L10.609485,11.640413 L10.6153681,11.640413 L10.6153681,13.640413 L10.613407,13.640413 Z M4.61081993,11.640413 L8.610799,11.640413 L8.60117712,7.05441119 L4.60118804,7.05441119 L4.61081993,11.640413 Z M4.6150205,13.640413 L4.61536806,13.8058973 L6.64235534,15.8119474 L8.61536806,13.8181251 L8.6149952,13.640413 L4.6150205,13.640413 Z M4.59698747,5.05441119 L8.59698092,5.05441119 L8.59068663,2.05441119 L4.59068663,2.05441119 L4.59698747,5.05441119 Z" id="path-1"></path>
    </defs>
    <g id="Symbols" stroke="none" stroke-width="1" fill="none" fill-rule="evenodd">
        <g id="Icons-/-Edit-/-Medium">
            <mask id="mask-2" fill="white">
                <use xlink:href="#path-1"></use>
            </mask>
            <use id="Combined-Shape" fill="#8E9FB6" fill-rule="nonzero" transform="translate(6.603027, 9.347412) rotate(44.000000) translate(-6.603027, -9.347412) " xlink:href="#path-1"></use>
        </g>
    </g>
</svg>