<?xml version="1.0" encoding="UTF-8"?>
<svg width="16px" height="16px" viewBox="0 0 16 16" version="1.1" xmlns="http://www.w3.org/2000/svg" xmlns:xlink="http://www.w3.org/1999/xlink">
    <!-- Generator: Sketch 48.1 (47250) - http://www.bohemiancoding.com/sketch -->
    <title>Icons / Actions / Medium</title>
    <desc>Created with Sketch.</desc>
    <defs>
        <path d="M13.0000546,11.0000546 C13.5523092,11.0000546 14,11.4477454 14,12 C14,12.5522546 13.5523092,12.9999454 13.0000546,12.9999454 L0.999945432,12.9999454 C0.447690819,12.9999454 6.76316844e-17,12.5522546 0,12 C-6.76316844e-17,11.4477454 0.447690819,11.0000546 0.999945432,11.0000546 L1,7.5 C1,4.59923576 3.6862915,2 7.15789474,2 C10.3137085,2 13,4.59923576 13,7.5 L13,11.0000546 Z M11,11 L11,7.5 C11,5.69758699 9.209139,4 7.30769231,4 C4.790861,4 3,5.69758699 3,7.5 L3,11 L11,11 Z M7,2 C6.44771525,2 6,1.55228475 6,1 C6,0.44771525 6.44771525,0 7,0 C7.55228475,0 8,0.44771525 8,1 C8,1.55228475 7.55228475,2 7,2 Z M4,13 L5.8,13 C5.8,13.9037387 5.87157288,14.0363636 7,14.2 C7.52842712,14.0363636 8.2,13.9037387 8.2,13 L10,13 C10,14.9882251 8.52253967,16 7,16 C4.87746033,16 4,14.9882251 4,13 Z" id="path-1"></path>
    </defs>
    <g id="Symbols" stroke="none" stroke-width="1" fill="none" fill-rule="evenodd">
        <g id="Icons-/-Actions-/-Medium">
            <g id="Color-/-Black" transform="translate(1.000000, 0.000000)">
                <mask id="mask-2" fill="white">
                    <use xlink:href="#path-1"></use>
                </mask>
                <use id="Mask" fill="#8E9FB6" xlink:href="#path-1"></use>
            </g>
        </g>
    </g>
</svg>