<?xml version="1.0" encoding="UTF-8"?>
<svg width="16px" height="16px" viewBox="0 0 16 16" version="1.1" xmlns="http://www.w3.org/2000/svg" xmlns:xlink="http://www.w3.org/1999/xlink">
    <!-- Generator: Sketch 48.1 (47250) - http://www.bohemiancoding.com/sketch -->
    <title>Icons / Options / Medium</title>
    <desc>Created with Sketch.</desc>
    <defs>
        <path d="M4.26756439,15 L1,15 C0.44771525,15 6.76353751e-17,14.5522847 0,14 C-6.76353751e-17,13.4477153 0.44771525,13 1,13 L4.26756439,13 C4.61337381,12.4021986 5.25971764,12 6,12 C6.74028236,12 7.38662619,12.4021986 7.73243561,13 L15,13 C15.5522847,13 16,13.4477153 16,14 C16,14.5522847 15.5522847,15 15,15 L7.73243561,15 C7.38662619,15.5978014 6.74028236,16 6,16 C5.25971764,16 4.61337381,15.5978014 4.26756439,15 Z M9.26756439,9 L1,9 C0.44771525,9 6.76353751e-17,8.55228475 0,8 C-6.76353751e-17,7.44771525 0.44771525,7 1,7 L9.26756439,7 C9.61337381,6.40219863 10.2597176,6 11,6 C11.7402824,6 12.3866262,6.40219863 12.7324356,7 L15,7 C15.5522847,7 16,7.44771525 16,8 C16,8.55228475 15.5522847,9 15,9 L12.7324356,9 C12.3866262,9.59780137 11.7402824,10 11,10 C10.2597176,10 9.61337381,9.59780137 9.26756439,9 Z M2.26756439,1 C2.61337381,0.40219863 3.25971764,0 4,0 C4.74028236,0 5.38662619,0.40219863 5.73243561,1 L15,1 C15.5522847,1 16,1.44771525 16,2 C16,2.55228475 15.5522847,3 15,3 L5.73243561,3 C5.38662619,3.59780137 4.74028236,4 4,4 C3.25971764,4 2.61337381,3.59780137 2.26756439,3 L1,3 C0.44771525,3 6.76353751e-17,2.55228475 0,2 C-6.76353751e-17,1.44771525 0.44771525,1 1,1 L2.26756439,1 Z" id="path-1"></path>
    </defs>
    <g id="Symbols" stroke="none" stroke-width="1" fill="none" fill-rule="evenodd">
        <g id="Icons-/-Options-/-Medium">
            <g id="Color-/-Black">
                <mask id="mask-2" fill="white">
                    <use xlink:href="#path-1"></use>
                </mask>
                <use id="Mask" fill="#8E9FB6" xlink:href="#path-1"></use>
            </g>
        </g>
    </g>
</svg>