<?xml version="1.0" encoding="UTF-8"?>
<svg width="16px" height="16px" viewBox="0 0 16 16" version="1.1" xmlns="http://www.w3.org/2000/svg" xmlns:xlink="http://www.w3.org/1999/xlink">
    <!-- Generator: Sketch 48.1 (47250) - http://www.bohemiancoding.com/sketch -->
    <title>Icons / Message / Medium</title>
    <desc>Created with Sketch.</desc>
    <defs>
        <path d="M3.08990479,11.0081787 L12,11.0081787 C13.1045695,11.0081787 14,10.1746752 14,9.04718465 L14,4.04150227 C14,2.9140117 13.1045695,2 12,2 L4,2 C2.8954305,2 2,2.9140117 2,4.04150227 L2,11.6412354 L3.08990479,11.0081787 Z M4,0 L12,0 C14.209139,0 16,1.790861 16,4 L16,9.04718465 C16,11.2563236 14.209139,13.0471846 12,13.0471846 L3.9395466,13.0471846 L0,15 L0,4 C0,1.790861 1.790861,0 4,0 Z" id="path-1"></path>
    </defs>
    <g id="Symbols" stroke="none" stroke-width="1" fill="none" fill-rule="evenodd">
        <g id="Icons-/-Message-/-Medium">
            <g id="Color-/-Medium-Gray" transform="translate(0.000000, 1.000000)">
                <mask id="mask-2" fill="white">
                    <use xlink:href="#path-1"></use>
                </mask>
                <use id="Mask" fill="#8E9FB6" fill-rule="nonzero" xlink:href="#path-1"></use>
            </g>
        </g>
    </g>
</svg>