<?xml version="1.0" encoding="UTF-8"?>
<svg width="22px" height="19px" viewBox="0 0 22 19" version="1.1" xmlns="http://www.w3.org/2000/svg" xmlns:xlink="http://www.w3.org/1999/xlink">
    <!-- Generator: Sketch 48.1 (47250) - http://www.bohemiancoding.com/sketch -->
    <title>Icons / Send / Big</title>
    <desc>Created with Sketch.</desc>
    <defs>
        <path d="M6.6335355,19.6729177 C7.40493747,18.0191346 8.6853313,15.3307556 9.80240819,13.0453742 C10.8373975,10.9279323 11.7442288,9.12343652 12.4366153,7.8139265 C12.6446888,7.42039716 12.8318371,7.07456066 12.9962591,6.77989898 C13.149913,7.05798048 13.3237503,7.38177065 13.5164178,7.74861002 C14.1814091,9.01475464 15.052149,10.7574475 16.0812481,12.8708635 C16.1982702,13.1113187 16.1982702,13.1113187 16.3151892,13.3520693 C17.1282487,15.0271054 17.9816732,16.8111144 18.8574914,18.6593764 C19.000442,18.9610489 19.1756699,19.3317277 19.3486903,19.6980612 C18.5342889,19.5080312 17.436919,19.2194357 16.0615212,18.8330786 C15.5307253,18.683975 14.9785656,18.9898941 14.828238,19.5163681 C14.6779104,20.042842 14.9863408,20.5905059 15.5171367,20.7396095 C17.3487936,21.2541324 18.7075645,21.6015676 19.6043033,21.7836809 C20.0912648,21.882575 20.4553641,21.9362135 20.7264789,21.9430263 C20.966647,21.9490613 21.1639373,21.9266312 21.3781484,21.82875 C21.9231431,21.5797211 22.1535812,20.9536066 21.8922653,20.4139522 C21.8883503,20.4058672 21.1217052,18.7791892 20.6655312,17.8165132 C19.7872761,15.9631087 18.9313173,14.1738019 18.1152203,12.492508 C17.9977797,12.2506834 17.9977797,12.2506834 17.8802051,12.0090928 C14.3078175,4.67263612 13.9545425,4 13.0007087,4 C12.0412812,4 11.5415963,4.94505377 8.00474915,12.1809431 C6.3001681,15.668275 4.27166249,19.9713498 4.07393109,20.4959481 C3.86724522,21.0443035 4.10263904,21.6531259 4.67105822,21.8942678 C4.92839829,22.0034399 5.17729558,22.0164114 5.48169133,21.985327 C5.8593842,21.9467576 6.38292106,21.8212583 7.08596839,21.6081701 C8.40867021,21.2072694 10.4178519,20.4774812 13.1251937,19.4157857 L13.6677781,19.2030089 L14.2000676,15.3731936 C14.2754054,14.8311391 13.8934495,14.3311411 13.3469453,14.2564168 C12.800441,14.1816924 12.2963385,14.5605382 12.2210006,15.1025926 L11.8481869,17.7849818 C9.5476968,18.6800764 7.80667238,19.3101141 6.6335355,19.6729177 Z" id="path-1"></path>
    </defs>
    <g id="Symbols" stroke="none" stroke-width="1" fill="none" fill-rule="evenodd">
        <g id="Icons-/-Send-/-Big">
            <g id="Color-/-Black" transform="translate(0.000000, -7.000000)">
                <mask id="mask-2" fill="white">
                    <use xlink:href="#path-1"></use>
                </mask>
                <use id="Mask" fill="#8E9FB6" fill-rule="nonzero" transform="translate(13.000000, 13.000000) rotate(-308.000000) translate(-13.000000, -13.000000) " xlink:href="#path-1"></use>
            </g>
        </g>
    </g>
</svg>