<?xml version="1.0" encoding="UTF-8"?>
<svg width="24px" height="24px" viewBox="0 0 24 24" version="1.1" xmlns="http://www.w3.org/2000/svg" xmlns:xlink="http://www.w3.org/1999/xlink">
    <!-- Generator: Sketch 48.1 (47250) - http://www.bohemiancoding.com/sketch -->
    <title>Icons / Out of time</title>
    <desc>Created with Sketch.</desc>
    <defs>
        <path d="M19.9560821,9.05659526 C19.3108048,8.40967342 18.5396818,7.88833663 17.6825526,7.53242423 C16.6112521,4.37633013 13.6234757,2.10526316 10.1052632,2.10526316 C5.68698516,2.10526316 2.10526316,5.68698516 2.10526316,10.1052632 C2.10526316,14.252017 5.26028462,17.6618762 9.30080617,18.0653192 C9.82831972,18.8035216 10.495687,19.4349347 11.2642011,19.9208516 C10.8501536,19.973084 10.4282201,20 10,20 C4.4771525,20 0,15.5228475 0,10 C0,4.4771525 4.4771525,0 10,0 C15.2046903,0 19.480695,3.97617575 19.9560821,9.05659526 Z M11,8.25468928 C10.1926202,8.81785493 9.50951255,9.54685863 9.00005457,10.3923228 L9.00005457,5.00003508 C9.00005457,4.44776036 9.44775256,4.00004841 10.0000273,4.00003118 C10.5522797,4.00001396 10.9999828,4.44768907 11,4.99994153 C11,4.99995193 11,4.99996232 11,4.99997272 L11,8.25468928 Z M9,10.3924134 C8.69949332,10.8911323 8.45940807,11.4303726 8.28987868,12 L5.00002729,12 C4.4477576,12 4.00005457,11.552297 4.00005457,11.0000273 C4.00005457,10.4477576 4.4477576,10.0000546 5.00002729,10.0000546 L9,10.0000546 L9,10.3924134 Z M15,20 C11.6862915,20 9,17.3137085 9,14 C9,10.6862915 11.6862915,8 15,8 C18.3137085,8 21,10.6862915 21,14 C21,17.3137085 18.3137085,20 15,20 Z M15,18 C17.209139,18 19,16.209139 19,14 C19,11.790861 17.209139,10 15,10 C12.790861,10 11,11.790861 11,14 C11,16.209139 12.790861,18 15,18 Z M15,11 C15.5522847,11 16,11.4477153 16,12 L16,13 C16,13.5522847 15.5522847,14 15,14 C14.4477153,14 14,13.5522847 14,13 L14,12 C14,11.4477153 14.4477153,11 15,11 Z M15,15 C15.5522847,15 16,15.4477153 16,16 C16,16.5522847 15.5522847,17 15,17 C14.4477153,17 14,16.5522847 14,16 C14,15.4477153 14.4477153,15 15,15 Z" id="path-1"></path>
    </defs>
    <g id="Symbols" stroke="none" stroke-width="1" fill="none" fill-rule="evenodd">
        <g id="Icons-/-Out-of-time">
            <g id="Color-/-Black" transform="translate(2.000000, 2.000000)">
                <mask id="mask-2" fill="white">
                    <use xlink:href="#path-1"></use>
                </mask>
                <use id="Combined-Shape" fill="#FE201D" fill-rule="nonzero" xlink:href="#path-1"></use>
            </g>
        </g>
    </g>
</svg>