<?xml version="1.0" encoding="UTF-8"?>
<svg width="24px" height="24px" viewBox="0 0 24 24" version="1.1" xmlns="http://www.w3.org/2000/svg" xmlns:xlink="http://www.w3.org/1999/xlink">
    <!-- Generator: Sketch 48.1 (47250) - http://www.bohemiancoding.com/sketch -->
    <title>Icons / Job is done / Big</title>
    <desc>Created with Sketch.</desc>
    <defs>
        <path d="M8,5 L7,5 C6.44771525,5 6,5.44771525 6,6 L6,19 C6,19.5522847 6.44771525,20 7,20 L17,20 C17.5522847,20 18,19.5522847 18,19 L18,6 C18,5.44771525 17.5522847,5 17,5 L16,5 C16,5.55228475 15.5522847,6 15,6 L9,6 C8.44771525,6 8,5.55228475 8,5 Z M8,3 L8,2 C8,1.44771525 8.44771525,1 9,1 L15,1 C15.5522847,1 16,1.44771525 16,2 L16,3 L17,3 C18.6568542,3 20,4.34314575 20,6 L20,19 C20,20.6568542 18.6568542,22 17,22 L7,22 C5.34314575,22 4,20.6568542 4,19 L4,6 C4,4.34314575 5.34314575,3 7,3 L8,3 Z M10,4 L14,4 L14,3 L10,3 L10,4 Z M11.8089492,13.3155947 L14.8010654,9 L16.4236817,10.1692375 L12.2314687,16.1502737 L8,13.4085838 L9.2111011,11.8169701 L11.8089492,13.3155947 Z" id="path-1"></path>
    </defs>
    <g id="Symbols" stroke="none" stroke-width="1" fill="none" fill-rule="evenodd">
        <g id="Icons-/-Job-is-done-/-Big">
            <mask id="mask-2" fill="white">
                <use xlink:href="#path-1"></use>
            </mask>
            <use id="Combined-Shape" fill="#08ce0c" fill-rule="nonzero" xlink:href="#path-1"></use>
        </g>
    </g>
</svg>