<?xml version="1.0" encoding="UTF-8"?>
<svg width="8px" height="8px" viewBox="0 0 8 8" version="1.1" xmlns="http://www.w3.org/2000/svg" xmlns:xlink="http://www.w3.org/1999/xlink">
    <!-- Generator: Sketch 48.1 (47250) - http://www.bohemiancoding.com/sketch -->
    <title>Icons / Cross / Small</title>
    <desc>Created with Sketch.</desc>
    <defs>
        <path d="M6.03557249,6.03557249 L6.03557249,3.32846571 C6.03557249,2.77618096 6.48328774,2.32846571 7.03557249,2.32846571 C7.58785724,2.32846571 8.03557249,2.77618096 8.03557249,3.32846571 L8.03557249,6.03557249 L10.7427338,6.03557249 C11.2949885,6.03557249 11.7426793,6.48326331 11.7426793,7.03551792 C11.7426793,7.58777254 11.2949885,8.03546335 10.7427338,8.03546335 L8.03557249,8.03546335 L8.03557249,10.7426793 C8.03557249,11.294964 7.58785724,11.7426793 7.03557249,11.7426793 C6.48328774,11.7426793 6.03557249,11.294964 6.03557249,10.7426793 L6.03557249,8.03546335 L3.32841114,8.03546335 C2.77615653,8.03546335 2.32846571,7.58777254 2.32846571,7.03551792 C2.32846571,6.48326331 2.77615653,6.03557249 3.32841114,6.03557249 L6.03557249,6.03557249 Z" id="path-1"></path>
    </defs>
    <g id="Symbols" stroke="none" stroke-width="1" fill="none" fill-rule="evenodd">
        <g id="Icons-/-Cross-/-Small">
            <g id="Color-/-Medium-Gray" transform="translate(-3.000000, -3.000000)">
                <mask id="mask-2" fill="white">
                    <use xlink:href="#path-1"></use>
                </mask>
                <use id="Mask" fill="#8E9FB6" transform="translate(7.035572, 7.035572) rotate(-45.000000) translate(-7.035572, -7.035572) " xlink:href="#path-1"></use>
            </g>
        </g>
    </g>
</svg>