<?xml version="1.0" encoding="UTF-8"?>
<svg width="16px" height="16px" viewBox="0 0 16 16" version="1.1" xmlns="http://www.w3.org/2000/svg" xmlns:xlink="http://www.w3.org/1999/xlink">
    <!-- Generator: Sketch 48.1 (47250) - http://www.bohemiancoding.com/sketch -->
    <title>Icons / Search / Medium</title>
    <desc>Created with Sketch.</desc>
    <defs>
        <path d="M13.6571613,11.6662726 L15.9271103,13.9362215 C16.0242966,14.6165256 16.0242966,15.2468061 15.9271103,15.9271103 C15.2468061,16.0242966 14.6165256,16.0242966 13.9362215,15.9271103 L11.6952247,13.6861135 C10.5754297,14.4705829 9.24719009,14.9316659 7.84644403,14.9316659 C3.41009521,14.9316659 0,11.6547195 0,7.46583294 C0,3.2769464 3.41009521,0 7.84644403,0 C11.6574015,0 14.9316659,3.4129388 14.9316659,7.46583294 C14.9316659,9.0100005 14.4563612,10.4612697 13.6571613,11.6662726 Z M7.84644403,12.9407771 C10.5389646,12.9407771 12.9407771,10.437241 12.9407771,7.46583294 C12.9407771,4.49442487 10.5389646,1.99088878 7.84644403,1.99088878 C4.49228326,1.99088878 1.99088878,4.39461511 1.99088878,7.46583294 C1.99088878,10.5370508 4.49228326,12.9407771 7.84644403,12.9407771 Z" id="path-1"></path>
    </defs>
    <g id="Symbols" stroke="none" stroke-width="1" fill="none" fill-rule="evenodd">
        <g id="Icons-/-Search-/-Medium">
            <g id="Color-/-Medium-Gray">
                <mask id="mask-2" fill="white">
                    <use xlink:href="#path-1"></use>
                </mask>
                <use id="Mask" fill="#8E9FB6" fill-rule="nonzero" xlink:href="#path-1"></use>
            </g>
        </g>
    </g>
</svg>