<?xml version="1.0" encoding="UTF-8"?>
<svg width="24px" height="24px" viewBox="0 0 24 24" version="1.1" xmlns="http://www.w3.org/2000/svg" xmlns:xlink="http://www.w3.org/1999/xlink">
    <!-- Generator: Sketch 48.1 (47250) - http://www.bohemiancoding.com/sketch -->
    <title>Icons / Out of location / Big</title>
    <desc>Created with Sketch.</desc>
    <defs>
        <path d="M10.6213589,11.0355725 L8.70714537,9.12135893 C8.31662108,8.73083464 8.31662108,8.09766966 8.70714537,7.70714537 C9.09766966,7.31662108 9.73083464,7.31662108 10.1213589,7.70714537 L12.0355725,9.62135893 L13.9498246,7.70710678 C14.3403276,7.3166038 14.973458,7.3166038 15.363961,7.70710678 C15.754464,8.09760976 15.754464,8.73074019 15.363961,9.12124317 L13.4497089,11.0354953 L15.3639996,12.9497861 C15.7545239,13.3403103 15.7545239,13.9734753 15.3639996,14.3639996 C14.9734753,14.7545239 14.3403103,14.7545239 13.9497861,14.3639996 L12.0354953,12.4497089 L10.1212432,14.363961 C9.73074019,14.754464 9.09760976,14.754464 8.70710678,14.363961 C8.3166038,13.973458 8.3166038,13.3403276 8.70710678,12.9498246 L10.6213589,11.0355725 Z M12,22 C9.90715144,22 4,14.6123136 4,10.125 C4,5.63768641 7.581722,2 12,2 C16.418278,2 20,5.63768641 20,10.125 C20,14.6123136 14.0928486,22 12,22 Z M12.5428343,19.5533138 C13.3174947,18.8589227 14.2050642,17.8490604 15.0330589,16.7059509 C16.8377065,14.2144977 18,11.599948 18,10.073881 C18,6.71936914 15.3137085,4 12,4 C8.6862915,4 6,6.71936914 6,10.073881 C6,11.599948 7.1622935,14.2144977 8.96694115,16.7059509 C9.79493581,17.8490604 10.6825053,18.8589227 11.4571657,19.5533138 C11.6558827,19.7314401 11.8391659,19.8813787 12,20 C12.1608341,19.8813787 12.3441173,19.7314401 12.5428343,19.5533138 Z" id="path-1"></path>
    </defs>
    <g id="Symbols" stroke="none" stroke-width="1" fill="none" fill-rule="evenodd">
        <g id="Icons-/-Out-of-location-/-Big">
            <mask id="mask-2" fill="white">
                <use xlink:href="#path-1"></use>
            </mask>
            <use id="Combined-Shape" fill="#FE201D" fill-rule="nonzero" xlink:href="#path-1"></use>
        </g>
    </g>
</svg>