<?xml version="1.0" encoding="UTF-8"?>
<svg width="12px" height="12px" viewBox="0 0 12 12" version="1.1" xmlns="http://www.w3.org/2000/svg" xmlns:xlink="http://www.w3.org/1999/xlink">
    <!-- Generator: Sketch 48.1 (47250) - http://www.bohemiancoding.com/sketch -->
    <title>Icons / Add / Little</title>
    <desc>Created with Sketch.</desc>
    <defs>
        <path d="M5,5.00005457 L5,1.00005457 C5,0.447769821 5.44771525,5.45711382e-05 6,5.45711382e-05 C6.55228475,5.45711382e-05 7,0.447769821 7,1.00005457 L7,5.00005457 L11,5.00005457 C11.5522847,5.00005457 12,5.44776982 12,6.00005457 C12,6.55233932 11.5522847,7.00005457 11,7.00005457 L7,7.00005457 L7,11.0000546 C7,11.5523393 6.55228475,12.0000546 6,12.0000546 C5.44771525,12.0000546 5,11.5523393 5,11.0000546 L5,7.00005457 L1,7.00005457 C0.44771525,7.00005457 -2.18993346e-16,6.55233932 -7.77156117e-16,6.00005457 C8.20543045e-16,5.44776982 0.44771525,5.00005457 1,5.00005457 L5,5.00005457 Z" id="path-1"></path>
    </defs>
    <g id="Symbols" stroke="none" stroke-width="1" fill="none" fill-rule="evenodd">
        <g id="Icons-/-Add-/-Little">
            <g id="Color-/-Medium-Gray">
                <mask id="mask-2" fill="white">
                    <use xlink:href="#path-1"></use>
                </mask>
                <use id="Mask" fill="#8E9FB6" xlink:href="#path-1"></use>
            </g>
        </g>
    </g>
</svg>