<?xml version="1.0" encoding="UTF-8"?>
<svg width="24px" height="24px" viewBox="0 0 24 24" version="1.1" xmlns="http://www.w3.org/2000/svg" xmlns:xlink="http://www.w3.org/1999/xlink">
    <!-- Generator: Sketch 48.1 (47250) - http://www.bohemiancoding.com/sketch -->
    <title>Icons / SOS / Big</title>
    <desc>Created with Sketch.</desc>
    <defs>
        <path d="M13.4312287,16.9999454 C13.3743307,19.0493994 12.2659798,20.6808731 9.89609823,20.9411425 C9.64060973,20.9841361 9.38019246,21.0041026 9.11884071,21 C6.5526123,20.9597168 5.06602262,19.6509668 5.06602262,17 L7.49771347,17 C7.49771347,18.0871862 7.98047958,18.6194441 8.82994835,18.7479965 C8.96732065,18.7606077 9.09738451,18.7669067 9.21008301,18.7669067 C10.2331446,18.719653 10.9925616,18.1925248 10.9999457,16.9999454 L9.55122066,16.9999454 L1.01314923,16.9999454 C0.453602363,16.9999454 7.50417844e-15,16.5522546 -2.30926389e-14,16 C-5.36894563e-14,15.4477454 0.453602363,15.0000546 1.01314923,15.0000546 L2.02640905,15.0000546 L2.02640905,11 C2.02640905,7.30811824 4.4154079,4 8.98028283,4 C8.98685648,4 8.99342888,4.00000975 9,4.00002924 C9.00657112,4.00000975 9.01314352,4 9.01971717,4 C13.5845921,4 15.973591,7.30811824 15.973591,11 L15.973591,15.0000546 L16.9868508,15.0000546 C17.5463976,15.0000546 18,15.4477454 18,16 C18,16.5522546 17.5463976,16.9999454 16.9868508,16.9999454 L13.4312287,16.9999454 Z M9,6.01830731 C6.08242234,6.23010038 4.05281809,8.24724981 4.05281809,10.3818347 L4.05281809,15 L9.13545957,15 L13.9471819,15 L13.9471819,10.3818347 C13.9471819,8.24724981 11.9175777,6.23010038 9,6.01830731 Z M9.11884071,4 C7.9996859,4 7.09243167,3.1045695 7.09243167,2 C7.09243167,0.8954305 7.9996859,0 9.11884071,0 C10.2379955,0 11.1452498,0.8954305 11.1452498,2 C11.1452498,3.1045695 10.2379955,4 9.11884071,4 Z" id="path-1"></path>
    </defs>
    <g id="Symbols" stroke="none" stroke-width="1" fill="none" fill-rule="evenodd">
        <g id="Icons-/-SOS-/-Big">
            <g id="Color-/-Black" transform="translate(3.000000, 1.000000)">
                <mask id="mask-2" fill="white">
                    <use xlink:href="#path-1"></use>
                </mask>
                <use id="Combined-Shape" fill="#FE201D" fill-rule="nonzero" xlink:href="#path-1"></use>
            </g>
        </g>
    </g>
</svg>