<?xml version="1.0" encoding="UTF-8"?>
<svg width="16px" height="16px" viewBox="0 0 16 16" version="1.1" xmlns="http://www.w3.org/2000/svg" xmlns:xlink="http://www.w3.org/1999/xlink">
    <!-- Generator: Sketch 48.1 (47250) - http://www.bohemiancoding.com/sketch -->
    <title>Icons / Attached file / Middle</title>
    <desc>Created with Sketch.</desc>
    <defs>
        <path d="M14,10 L14,2 L2,2 L2,14 L10,14 L10,12 C10,10.8954305 10.8954305,10 12,10 L14,10 Z M14,10 L16.0751953,10 L14.05512,12 L14,12 L14,12.1782803 L12,13.5384284 Z M16,10 L16.0751953,10 L16,10.074448 L16,13.1647949 L12,16 L10.0049318,16 L10,16.0048828 L10,16 L2,16 C0.8954305,16 1.3527075e-16,15.1045695 0,14 L0,2 C-1.3527075e-16,0.8954305 0.8954305,-6.85229326e-16 2,0 L14,0 C15.1045695,7.78186109e-16 16,0.8954305 16,2 L16,10 Z M5,4 L11,4 C11.5522847,4 12,4.44771525 12,5 C12,5.55228475 11.5522847,6 11,6 L5,6 C4.44771525,6 4,5.55228475 4,5 C4,4.44771525 4.44771525,4 5,4 Z M5,8 L8,8 C8.55228475,8 9,8.44771525 9,9 C9,9.55228475 8.55228475,10 8,10 L5,10 C4.44771525,10 4,9.55228475 4,9 C4,8.44771525 4.44771525,8 5,8 Z" id="path-1"></path>
    </defs>
    <g id="Symbols" stroke="none" stroke-width="1" fill="none" fill-rule="evenodd">
        <g id="Icons-/-Attached-file-/-Middle">
            <mask id="mask-2" fill="white">
                <use xlink:href="#path-1"></use>
            </mask>
            <use id="Mask" fill="#09CD07" fill-rule="nonzero" xlink:href="#path-1"></use>
        </g>
    </g>
</svg>